HIERARCHY
ROOT hip
{
  OFFSET 0 90.174 2.4664
  CHANNELS 6 Xposition Yposition Zposition Zrotation Xrotation Yrotation
  JOINT abdomen
  {
    OFFSET 0 -1.186 -1.5018
    CHANNELS 6 Xposition Yposition Zposition Zrotation Xrotation Yrotation
    JOINT abdomen2
    {
      OFFSET 0 9.964 0.2134
      CHANNELS 6 Xposition Yposition Zposition Zrotation Xrotation Yrotation
      JOINT chest
      {
        OFFSET 0 13.134 -3.2573
        CHANNELS 6 Xposition Yposition Zposition Zrotation Xrotation Yrotation
        JOINT neck
        {
          OFFSET 0 20.686 -1.6905
          CHANNELS 6 Xposition Yposition Zposition Zrotation Xrotation Yrotation
          JOINT head
          {
            OFFSET 0 7.238 -0.1237
            CHANNELS 6 Xposition Yposition Zposition Zrotation Xrotation Yrotation
            End Site
            {
              OFFSET 0 0 0
            }
          }
        }
        JOINT lCollar
        {
          OFFSET 1.7069 20.075 5.0056
          CHANNELS 6 Xposition Yposition Zposition Zrotation Xrotation Yrotation
          JOINT lShldr
          {
            OFFSET 13.6458 -0.047 -4.849
            CHANNELS 6 Xposition Yposition Zposition Zrotation Xrotation Yrotation
            JOINT lForeArm
            {
              OFFSET 28.3255 -0.9759 2.2888
              CHANNELS 6 Xposition Yposition Zposition Zrotation Xrotation Yrotation
              JOINT lHand
              {
                OFFSET 22.1583 -0.53 10.8316
                CHANNELS 6 Xposition Yposition Zposition Zrotation Xrotation Yrotation
                JOINT lThumb1
                {
                  OFFSET 0.786 0.112 2.5817
                  CHANNELS 6 Xposition Yposition Zposition Zrotation Xrotation Yrotation
                  JOINT lThumb2
                  {
                    OFFSET 0.3601 -0.878 4.2331
                    CHANNELS 6 Xposition Yposition Zposition Zrotation Xrotation Yrotation
                    JOINT lThumb2_End
                    {
                      OFFSET 1.8127 -1.216 2.2227
                      CHANNELS 6 Xposition Yposition Zposition Zrotation Xrotation Yrotation
                      End Site
                      {
                        OFFSET 0.0181 -0.0122 0.0222
                      }
                    }
                  }
                }
                JOINT lCarpal1
                {
                  OFFSET 0.9571 1.114 1.7695
                  CHANNELS 6 Xposition Yposition Zposition Zrotation Xrotation Yrotation
                  JOINT lIndex1
                  {
                    OFFSET 4.1246 0.487 4.1451
                    CHANNELS 6 Xposition Yposition Zposition Zrotation Xrotation Yrotation
                    JOINT lIndex2
                    {
                      OFFSET 3.4052 -1.454 2.7682
                      CHANNELS 6 Xposition Yposition Zposition Zrotation Xrotation Yrotation
                      JOINT lIndex2_End
                      {
                        OFFSET 1.4531 -1.795 1.2713
                        CHANNELS 6 Xposition Yposition Zposition Zrotation Xrotation Yrotation
                        End Site
                        {
                          OFFSET 0.0145 -0.0179 0.0127
                        }
                      }
                    }
                  }
                  JOINT lMid1
                  {
                    OFFSET 5.6954 0.21 2.1184
                    CHANNELS 6 Xposition Yposition Zposition Zrotation Xrotation Yrotation
                    JOINT lMid2
                    {
                      OFFSET 3.9766 -1.54 2.3863
                      CHANNELS 6 Xposition Yposition Zposition Zrotation Xrotation Yrotation
                      JOINT lMid2_End
                      {
                        OFFSET 1.4042 -1.926 1.125
                        CHANNELS 6 Xposition Yposition Zposition Zrotation Xrotation Yrotation
                        End Site
                        {
                          OFFSET 0.014 -0.0193 0.0113
                        }
                      }
                    }
                  }
                }
                JOINT lCarpal2
                {
                  OFFSET 2.0956 0.66 -0.3894
                  CHANNELS 6 Xposition Yposition Zposition Zrotation Xrotation Yrotation
                  JOINT lRing1
                  {
                    OFFSET 5.0395 -0.09 2.4971
                    CHANNELS 6 Xposition Yposition Zposition Zrotation Xrotation Yrotation
                    JOINT lRing2
                    {
                      OFFSET 3.7921 -1.552 1.4806
                      CHANNELS 6 Xposition Yposition Zposition Zrotation Xrotation Yrotation
                      JOINT lRing2_End
                      {
                        OFFSET 1.4655 -1.808 0.9609
                        CHANNELS 6 Xposition Yposition Zposition Zrotation Xrotation Yrotation
                        End Site
                        {
                          OFFSET 0.0147 -0.0181 0.0096
                        }
                      }
                    }
                  }
                  JOINT lPinky1
                  {
                    OFFSET 4.9141 -1.269 0.3591
                    CHANNELS 6 Xposition Yposition Zposition Zrotation Xrotation Yrotation
                    JOINT lPinky2
                    {
                      OFFSET 3.1477 -1.685 0.8462
                      CHANNELS 6 Xposition Yposition Zposition Zrotation Xrotation Yrotation
                      JOINT lPinky2_End
                      {
                        OFFSET 0.8055 -1.585 0.7955
                        CHANNELS 6 Xposition Yposition Zposition Zrotation Xrotation Yrotation
                        End Site
                        {
                          OFFSET 0.0081 -0.0158 0.008
                        }
                      }
                    }
                  }
                }
              }
            }
          }
        }
        JOINT rCollar
        {
          OFFSET -1.7069 20.075 5.0056
          CHANNELS 6 Xposition Yposition Zposition Zrotation Xrotation Yrotation
          JOINT rShldr
          {
            OFFSET -13.6458 -0.047 -4.849
            CHANNELS 6 Xposition Yposition Zposition Zrotation Xrotation Yrotation
            JOINT rForeArm
            {
              OFFSET -28.3255 -0.9759 2.2888
              CHANNELS 6 Xposition Yposition Zposition Zrotation Xrotation Yrotation
              JOINT rHand
              {
                OFFSET -22.1583 -0.53 10.8316
                CHANNELS 6 Xposition Yposition Zposition Zrotation Xrotation Yrotation
                JOINT rThumb1
                {
                  OFFSET -0.786 0.112 2.5817
                  CHANNELS 6 Xposition Yposition Zposition Zrotation Xrotation Yrotation
                  JOINT rThumb2
                  {
                    OFFSET -0.3601 -0.878 4.2331
                    CHANNELS 6 Xposition Yposition Zposition Zrotation Xrotation Yrotation
                    JOINT rThumb2_End
                    {
                      OFFSET -1.8127 -1.216 2.2227
                      CHANNELS 6 Xposition Yposition Zposition Zrotation Xrotation Yrotation
                      End Site
                      {
                        OFFSET -0.0181 -0.0122 0.0222
                      }
                    }
                  }
                }
                JOINT rCarpal1
                {
                  OFFSET -0.9571 1.114 1.7695
                  CHANNELS 6 Xposition Yposition Zposition Zrotation Xrotation Yrotation
                  JOINT rIndex1
                  {
                    OFFSET -4.1246 0.487 4.1451
                    CHANNELS 6 Xposition Yposition Zposition Zrotation Xrotation Yrotation
                    JOINT rIndex2
                    {
                      OFFSET -3.4052 -1.454 2.7682
                      CHANNELS 6 Xposition Yposition Zposition Zrotation Xrotation Yrotation
                      JOINT rIndex2_End
                      {
                        OFFSET -1.4531 -1.795 1.2713
                        CHANNELS 6 Xposition Yposition Zposition Zrotation Xrotation Yrotation
                        End Site
                        {
                          OFFSET -0.0145 -0.018 0.0127
                        }
                      }
                    }
                  }
                  JOINT rMid1
                  {
                    OFFSET -5.6954 0.21 2.1184
                    CHANNELS 6 Xposition Yposition Zposition Zrotation Xrotation Yrotation
                    JOINT rMid2
                    {
                      OFFSET -3.9766 -1.54 2.3863
                      CHANNELS 6 Xposition Yposition Zposition Zrotation Xrotation Yrotation
                      JOINT rMid2_End
                      {
                        OFFSET -1.4042 -1.926 1.125
                        CHANNELS 6 Xposition Yposition Zposition Zrotation Xrotation Yrotation
                        End Site
                        {
                          OFFSET -0.014 -0.0193 0.0113
                        }
                      }
                    }
                  }
                }
                JOINT rCarpal2
                {
                  OFFSET -2.0956 0.66 -0.3894
                  CHANNELS 6 Xposition Yposition Zposition Zrotation Xrotation Yrotation
                  JOINT rRing1
                  {
                    OFFSET -5.0395 -0.09 2.4971
                    CHANNELS 6 Xposition Yposition Zposition Zrotation Xrotation Yrotation
                    JOINT rRing2
                    {
                      OFFSET -3.7921 -1.552 1.4806
                      CHANNELS 6 Xposition Yposition Zposition Zrotation Xrotation Yrotation
                      JOINT rRing2_End
                      {
                        OFFSET -1.4655 -1.808 0.9609
                        CHANNELS 6 Xposition Yposition Zposition Zrotation Xrotation Yrotation
                        End Site
                        {
                          OFFSET -0.0147 -0.0181 0.0096
                        }
                      }
                    }
                  }
                  JOINT rPinky1
                  {
                    OFFSET -4.9141 -1.269 0.3592
                    CHANNELS 6 Xposition Yposition Zposition Zrotation Xrotation Yrotation
                    JOINT rPinky2
                    {
                      OFFSET -3.1477 -1.685 0.8462
                      CHANNELS 6 Xposition Yposition Zposition Zrotation Xrotation Yrotation
                      JOINT rPinky2_End
                      {
                        OFFSET -0.8055 -1.585 0.7955
                        CHANNELS 6 Xposition Yposition Zposition Zrotation Xrotation Yrotation
                        End Site
                        {
                          OFFSET -0.0081 -0.0158 0.008
                        }
                      }
                    }
                  }
                }
              }
            }
          }
        }
      }
    }
  }
  JOINT lThigh
  {
    OFFSET 8.367 -8.2066 0.5982
    CHANNELS 6 Xposition Yposition Zposition Zrotation Xrotation Yrotation
    JOINT lShin
    {
      OFFSET 2.1923 -43.463 -0.4932
      CHANNELS 6 Xposition Yposition Zposition Zrotation Xrotation Yrotation
      JOINT lFoot
      {
        OFFSET 0.7333 -45.8593 -2.6451
        CHANNELS 6 Xposition Yposition Zposition Zrotation Xrotation Yrotation
        End Site
        {
          OFFSET 2.6618 -4.2699 12.3931
        }
      }
    }
  }
  JOINT rThigh
  {
    OFFSET -8.367 -8.2066 0.5982
    CHANNELS 6 Xposition Yposition Zposition Zrotation Xrotation Yrotation
    JOINT rShin
    {
      OFFSET -2.1923 -43.463 -0.4931
      CHANNELS 6 Xposition Yposition Zposition Zrotation Xrotation Yrotation
      JOINT rFoot
      {
        OFFSET -0.7333 -45.8593 -2.6451
        CHANNELS 6 Xposition Yposition Zposition Zrotation Xrotation Yrotation
        End Site
        {
          OFFSET -2.6618 -4.2699 12.3931
        }
      }
    }
  }
}
MOTION
Frames:	4
Frame Time:	0.0333333
0 90.174 2.4664 0 0 -0 0 -1.186 -1.5018 0 0 -0 0 9.964 0.2134 0 0 -0 0 13.134 -3.2573 0 0 -0 0 20.686 -1.6905 0 0 -0 0 7.238 -0.1237 0 0 -0 1.7069 20.075 5.0056 0 0 -0 13.6458 -0.047 -4.849 1.66051 0.0835086 5.75766 28.3255 -0.9759 2.2888 -0.0175111 0.895433 15.7816 22.1583 -0.53 10.8316 7.95139e-016 -1.98785e-016 -0 0.786 0.112 2.5817 5.46658e-016 -3.97569e-016 -0 0.3601 -0.878 4.2331 5.96354e-016 0 -0 1.8127 -1.216 2.2227 3.97569e-016 1.98785e-016 9.54166e-015 0.9571 1.114 1.7695 1.49089e-016 -3.97569e-016 -0 4.1246 0.487 4.1451 6.4605e-016 0 3.18055e-015 3.4052 -1.454 2.7682 5.96354e-016 0 3.18055e-015 1.4531 -1.795 1.2713 8.94531e-016 -1.98785e-016 6.36111e-015 5.6954 0.21 2.1184 6.4605e-016 0 3.18055e-015 3.9766 -1.54 2.3863 5.96354e-016 0 3.18055e-015 1.4042 -1.926 1.125 8.94531e-016 -1.98785e-016 6.36111e-015 2.0956 0.66 -0.3894 1.49089e-016 -3.97569e-016 -0 5.0395 -0.09 2.4971 6.4605e-016 0 3.18055e-015 3.7921 -1.552 1.4806 5.96354e-016 0 3.18055e-015 1.4655 -1.808 0.9609 8.94531e-016 -1.98785e-016 6.36111e-015 4.9141 -1.269 0.3591 6.4605e-016 0 3.18055e-015 3.1477 -1.685 0.8462 5.96354e-016 0 3.18055e-015 0.8055 -1.585 0.7955 8.94531e-016 -1.98785e-016 6.36111e-015 -1.7069 20.075 5.0056 0 0 -0 -13.6458 -0.047 -4.849 -1.4496 0.0636048 -5.0245 -28.3255 -0.9759 2.2888 -1.74811 1.20616 -16.8394 -22.1583 -0.53 10.8316 -1.19271e-015 1.98785e-016 -3.18055e-015 -0.786 0.112 2.5817 -3.97569e-016 1.98785e-016 -3.18055e-015 -0.3601 -0.878 4.2331 -2.98177e-016 1.98785e-016 -3.18055e-015 -1.8127 -1.216 2.2227 -2.98177e-016 3.97569e-016 -0 -0.9571 1.114 1.7695 4.96962e-016 0 -6.36111e-015 -4.1246 0.487 4.1451 -9.93923e-017 3.97569e-016 -0 -3.4052 -1.454 2.7682 -8.94531e-016 5.96354e-016 -0 -1.4531 -1.795 1.2713 -3.97569e-016 3.97569e-016 -0 -5.6954 0.21 2.1184 -9.93923e-017 3.97569e-016 -0 -3.9766 -1.54 2.3863 -8.94531e-016 5.96354e-016 -0 -1.4042 -1.926 1.125 -3.97569e-016 3.97569e-016 -0 -2.0956 0.66 -0.3894 4.96962e-016 0 -6.36111e-015 -5.0395 -0.09 2.4971 -9.93923e-017 3.97569e-016 -0 -3.7921 -1.552 1.4806 -8.94531e-016 5.96354e-016 -0 -1.4655 -1.808 0.9609 -3.97569e-016 3.97569e-016 -0 -4.9141 -1.269 0.3592 -9.93923e-017 3.97569e-016 -0 -3.1477 -1.685 0.8462 -8.94531e-016 5.96354e-016 -0 -0.8055 -1.585 0.7955 -3.97569e-016 3.97569e-016 -0 8.367 -8.2066 0.5982 -4.66115 -1.03232 0.120763 2.1923 -43.463 -0.4932 0.00990601 1.55097 0.177175 0.7333 -45.8593 -2.6451 4.65196 -0.54114 -0.255042 -8.367 -8.2066 0.5982 4.66115 -1.03222 -0.120763 -2.1923 -43.463 -0.4931 -0.00990459 1.5509 -0.177176 -0.7333 -45.8593 -2.6451 -4.65196 -0.541171 0.255041 
-2.43036 14.2439 21.8853 -5.52494e-015 12.0025 180 0 -1.186 -1.5018 -0.41671 5.63723 0.168686 4.44089e-016 9.964 0.2134 -0.856456 11.273 0.381593 4.44089e-016 13.134 -3.2573 -0.856457 11.273 0.381593 0 20.686 -1.6905 3.87976e-006 -0.236062 8.05779e-007 2.22045e-016 7.238 -0.1237 0.0996642 -0.180096 0.000156322 1.7069 20.075 5.0056 -16.2712 -44.6049 11.5147 13.6458 -0.047 -4.849 -42.4495 6.11939 -1.12678 28.3255 -0.9759 2.2888 -55.7118 58.5484 -30.8943 22.1583 -0.53 10.8316 39.5257 17.9615 8.66012 0.786 0.112 2.5817 -1.59028e-015 8.34896e-015 3.18055e-015 0.3601 -0.878 4.2331 0 9.54166e-015 -0 1.8127 -1.216 2.2227 -1.63315e-030 1.47101e-014 6.36111e-015 0.9571 1.114 1.7695 0 1.59028e-015 -0 4.1246 0.487 4.1451 3.18055e-015 1.59028e-014 -3.18055e-015 3.4052 -1.454 2.7682 3.18055e-015 1.19271e-014 -0 1.4531 -1.795 1.2713 3.18055e-015 0 -0 5.6954 0.21 2.1184 3.18055e-015 1.59028e-014 -3.18055e-015 3.9766 -1.54 2.3863 3.18055e-015 1.19271e-014 -0 1.4042 -1.926 1.125 3.18055e-015 0 -0 2.0956 0.66 -0.3894 0 1.59028e-015 -0 5.0395 -0.09 2.4971 3.18055e-015 1.59028e-014 -3.18055e-015 3.7921 -1.552 1.4806 3.18055e-015 1.19271e-014 -0 1.4655 -1.808 0.9609 3.18055e-015 0 -0 4.9141 -1.269 0.3591 3.18055e-015 1.59028e-014 -3.18055e-015 3.1477 -1.685 0.8462 3.18055e-015 1.19271e-014 -0 0.8055 -1.585 0.7955 3.18055e-015 0 -0 -1.7069 20.075 5.0056 -3.79272 -43.5512 -22.802 -13.6458 -0.047 -4.849 41.9864 5.69441 2.93354 -28.3255 -0.9759 2.2888 43.177 50.395 25.6572 -22.1583 -0.53 10.8316 -24.1485 -4.02952 10.2141 -0.786 0.112 2.5817 -1.89168e-006 -3.68043e-006 1.55102e-007 -0.3601 -0.878 4.2331 -4.77083e-015 -1.59028e-015 -6.36111e-015 -1.8127 -1.216 2.2227 3.32819e-006 -5.82722e-007 -1.41912e-006 -0.9571 1.114 1.7695 0 3.97569e-016 -0 -4.1246 0.487 4.1451 -1.89168e-006 -3.68043e-006 1.55102e-007 -3.4052 -1.454 2.7682 1.59028e-015 1.59028e-015 -3.18055e-015 -1.4531 -1.795 1.2713 3.32819e-006 -5.82722e-007 -1.41912e-006 -5.6954 0.21 2.1184 -1.89168e-006 -3.68043e-006 1.55102e-007 -3.9766 -1.54 2.3863 1.59028e-015 1.59028e-015 -3.18055e-015 -1.4042 -1.926 1.125 3.32819e-006 -5.82722e-007 -1.41912e-006 -2.0956 0.66 -0.3894 0 3.97569e-016 -0 -5.0395 -0.09 2.4971 -1.89168e-006 -3.68043e-006 1.55102e-007 -3.7921 -1.552 1.4806 1.59028e-015 1.59028e-015 -3.18055e-015 -1.4655 -1.808 0.9609 3.32819e-006 -5.82722e-007 -1.41912e-006 -4.9141 -1.269 0.3592 -1.89168e-006 -3.68043e-006 1.55102e-007 -3.1477 -1.685 0.8462 1.59028e-015 1.59028e-015 -3.18055e-015 -0.8055 -1.585 0.7955 3.32819e-006 -5.82722e-007 -1.41912e-006 8.367 -8.2066 0.5982 100.795 -22.6021 151.31 2.1923 -43.463 -0.4932 166.773 65.813 -160.133 0.7333 -45.8593 -2.6451 -33.7169 53.0267 15.2033 -8.367 -8.2066 0.5982 -98.7563 -31.173 -153.169 -2.1923 -43.463 -0.4931 -168.076 63.5074 161.505 -0.7333 -45.8593 -2.6451 31.2793 41.7901 -12.1743 
-2.42873 14.2685 21.7449 -5.43984e-015 12.6657 180 0 -1.186 -1.5018 -0.418871 5.42893 0.163922 -4.44089e-016 9.964 0.2134 -0.859253 10.8565 0.37043 4.44089e-016 13.134 -3.2573 -0.859253 10.8565 0.37043 -6.66134e-016 20.686 -1.6905 -2.61602e-006 -0.235445 3.30391e-007 0 7.238 -0.1237 0.0994155 -0.179647 0.000155735 1.7069 20.075 5.0056 -16.3106 -43.7866 11.9775 13.6458 -0.047 -4.849 -42.4495 6.1194 -1.12678 28.3255 -0.9759 2.2888 -55.387 58.3361 -30.7148 22.1583 -0.53 10.8316 38.9179 18.1163 8.94837 0.786 0.112 2.5817 -3.18055e-015 -2.18663e-014 3.18055e-015 0.3601 -0.878 4.2331 -3.18055e-015 -2.50469e-014 -3.18055e-015 1.8127 -1.216 2.2227 -7.95139e-015 -1.78906e-014 -0 0.9571 1.114 1.7695 2.64834e-031 -2.38542e-015 6.36111e-015 4.1246 0.487 4.1451 1.59028e-015 -2.38542e-015 -0 3.4052 -1.454 2.7682 -6.36111e-015 -2.26615e-014 -3.18055e-015 1.4531 -1.795 1.2713 -3.18055e-015 -2.3059e-014 -3.18055e-015 5.6954 0.21 2.1184 1.59028e-015 -2.38542e-015 -0 3.9766 -1.54 2.3863 -6.36111e-015 -2.26615e-014 -3.18055e-015 1.4042 -1.926 1.125 -3.18055e-015 -2.3059e-014 -3.18055e-015 2.0956 0.66 -0.3894 2.64834e-031 -2.38542e-015 6.36111e-015 5.0395 -0.09 2.4971 1.59028e-015 -2.38542e-015 -0 3.7921 -1.552 1.4806 -6.36111e-015 -2.26615e-014 -3.18055e-015 1.4655 -1.808 0.9609 -3.18055e-015 -2.3059e-014 -3.18055e-015 4.9141 -1.269 0.3591 1.59028e-015 -2.38542e-015 -0 3.1477 -1.685 0.8462 -6.36111e-015 -2.26615e-014 -3.18055e-015 0.8055 -1.585 0.7955 -3.18055e-015 -2.3059e-014 -3.18055e-015 -1.7069 20.075 5.0056 -3.00241 -42.9353 -22.6217 -13.6458 -0.047 -4.849 41.7173 5.67033 2.861 -28.3255 -0.9759 2.2888 42.8971 50.229 25.4957 -22.1583 -0.53 10.8316 -23.5638 -3.38514 9.87234 -0.786 0.112 2.5817 -1.59028e-015 -1.23246e-014 -3.18055e-015 -0.3601 -0.878 4.2331 3.96704e-006 -4.8075e-006 -7.0487e-007 -1.8127 -1.216 2.2227 1.79564e-006 2.43243e-006 -1.42155e-006 -0.9571 1.114 1.7695 -1.59028e-015 7.95139e-016 -3.18055e-015 -4.1246 0.487 4.1451 6.36111e-015 -5.56597e-015 3.18055e-015 -3.4052 -1.454 2.7682 3.96704e-006 -4.8075e-006 -7.0487e-007 -1.4531 -1.795 1.2713 1.79564e-006 2.43243e-006 -1.42155e-006 -5.6954 0.21 2.1184 6.36111e-015 -5.56597e-015 3.18055e-015 -3.9766 -1.54 2.3863 3.96704e-006 -4.8075e-006 -7.0487e-007 -1.4042 -1.926 1.125 1.79564e-006 2.43243e-006 -1.42155e-006 -2.0956 0.66 -0.3894 -1.59028e-015 7.95139e-016 -3.18055e-015 -5.0395 -0.09 2.4971 6.36111e-015 -5.56597e-015 3.18055e-015 -3.7921 -1.552 1.4806 3.96704e-006 -4.8075e-006 -7.0487e-007 -1.4655 -1.808 0.9609 1.79564e-006 2.43243e-006 -1.42155e-006 -4.9141 -1.269 0.3592 6.36111e-015 -5.56597e-015 3.18055e-015 -3.1477 -1.685 0.8462 3.96704e-006 -4.8075e-006 -7.0487e-007 -0.8055 -1.585 0.7955 1.79564e-006 2.43243e-006 -1.42155e-006 8.367 -8.2066 0.5982 100.494 -22.4917 150.539 2.1923 -43.463 -0.4932 166.82 65.5257 -160.155 0.7333 -45.8593 -2.6451 -33.4354 53.0358 14.8195 -8.367 -8.2066 0.5982 -98.3405 -31.1132 -152.327 -2.1923 -43.463 -0.4931 -168.108 63.2135 161.508 -0.7333 -45.8593 -2.6451 31.1497 41.7271 -11.8841 
-2.42712 14.2923 21.6051 -5.35392e-015 13.3318 180 0 -1.186 -1.5018 -0.421033 5.21963 0.159143 4.44089e-016 9.964 0.2134 -0.862097 10.438 0.359236 0 13.134 -3.2573 -0.862096 10.438 0.359236 -4.44089e-016 20.686 -1.6905 -4.53803e-005 -0.234515 -4.39687e-007 -2.22045e-016 7.238 -0.1237 0.0991647 -0.179195 0.000155007 1.7069 20.075 5.0056 -16.3586 -42.9675 12.4353 13.6458 -0.047 -4.849 -42.4495 6.1194 -1.12678 28.3255 -0.9759 2.2888 -55.0627 58.1242 -30.534 22.1583 -0.53 10.8316 38.3084 18.2682 9.23865 0.786 0.112 2.5817 -4.77083e-015 -2.14687e-014 3.18055e-015 0.3601 -0.878 4.2331 -7.95139e-015 -1.59028e-014 -0 1.8127 -1.216 2.2227 -1.59028e-015 -1.59028e-014 -6.36111e-015 0.9571 1.114 1.7695 -1.59028e-015 -7.55382e-015 6.36111e-015 4.1246 0.487 4.1451 3.18055e-015 -7.15625e-015 -0 3.4052 -1.454 2.7682 -4.77083e-015 -1.35174e-014 -3.18055e-015 1.4531 -1.795 1.2713 -7.95139e-015 -1.27222e-014 -3.18055e-015 5.6954 0.21 2.1184 3.18055e-015 -7.15625e-015 -0 3.9766 -1.54 2.3863 -4.77083e-015 -1.35174e-014 -3.18055e-015 1.4042 -1.926 1.125 -7.95139e-015 -1.27222e-014 -3.18055e-015 2.0956 0.66 -0.3894 -1.59028e-015 -7.55382e-015 6.36111e-015 5.0395 -0.09 2.4971 3.18055e-015 -7.15625e-015 -0 3.7921 -1.552 1.4806 -4.77083e-015 -1.35174e-014 -3.18055e-015 1.4655 -1.808 0.9609 -7.95139e-015 -1.27222e-014 -3.18055e-015 4.9141 -1.269 0.3591 3.18055e-015 -7.15625e-015 -0 3.1477 -1.685 0.8462 -4.77083e-015 -1.35174e-014 -3.18055e-015 0.8055 -1.585 0.7955 -7.95139e-015 -1.27222e-014 -3.18055e-015 -1.7069 20.075 5.0056 -2.22171 -42.317 -22.4545 -13.6458 -0.047 -4.849 41.4482 5.6466 2.78834 -28.3255 -0.9759 2.2888 42.6175 50.0635 25.3335 -22.1583 -0.53 10.8316 -22.975 -2.74356 9.52381 -0.786 0.112 2.5817 2.20695e-031 -3.97569e-015 3.18055e-015 -0.3601 -0.878 4.2331 -3.18055e-015 -7.55382e-015 -0 -1.8127 -1.216 2.2227 -0 -3.97569e-016 -0 -0.9571 1.114 1.7695 2.20695e-031 -3.97569e-015 3.18055e-015 -4.1246 0.487 4.1451 3.18055e-015 -1.98785e-014 3.18055e-015 -3.4052 -1.454 2.7682 -3.18055e-015 -2.78299e-015 -0 -1.4531 -1.795 1.2713 3.18055e-015 1.19271e-015 -3.18055e-015 -5.6954 0.21 2.1184 3.18055e-015 -1.98785e-014 3.18055e-015 -3.9766 -1.54 2.3863 -3.18055e-015 -2.78299e-015 -0 -1.4042 -1.926 1.125 3.18055e-015 1.19271e-015 -3.18055e-015 -2.0956 0.66 -0.3894 2.20695e-031 -3.97569e-015 3.18055e-015 -5.0395 -0.09 2.4971 3.18055e-015 -1.98785e-014 3.18055e-015 -3.7921 -1.552 1.4806 -3.18055e-015 -2.78299e-015 -0 -1.4655 -1.808 0.9609 3.18055e-015 1.19271e-015 -3.18055e-015 -4.9141 -1.269 0.3592 3.18055e-015 -1.98785e-014 3.18055e-015 -3.1477 -1.685 0.8462 -3.18055e-015 -2.78299e-015 -0 -0.8055 -1.585 0.7955 3.18055e-015 1.19271e-015 -3.18055e-015 8.367 -8.2066 0.5982 100.195 -22.3768 149.768 2.1923 -43.463 -0.4932 166.867 65.238 -160.176 0.7333 -45.8593 -2.6451 -33.1544 53.0442 14.4363 -8.367 -8.2066 0.5982 -97.9265 -31.0476 -151.486 -2.1923 -43.463 -0.4931 -168.138 62.9195 161.509 -0.7333 -45.8593 -2.6451 31.0212 41.664 -11.5948 
